<?xml version="1.0" encoding="UTF-8" standalone="no"?>
<!-- Created with Inkscape (http://www.inkscape.org/) -->

<svg
   width="209.76093mm"
   height="244.98808mm"
   viewBox="0 0 209.76093 244.98808"
   version="1.1"
   id="svg983"
   inkscape:version="1.1.2 (b8e25be833, 2022-02-05)"
   sodipodi:docname="logo2.svg"
   xmlns:inkscape="http://www.inkscape.org/namespaces/inkscape"
   xmlns:sodipodi="http://sodipodi.sourceforge.net/DTD/sodipodi-0.dtd"
   xmlns="http://www.w3.org/2000/svg"
   xmlns:svg="http://www.w3.org/2000/svg">
  <sodipodi:namedview
     id="namedview985"
     pagecolor="#ffffff"
     bordercolor="#666666"
     borderopacity="1.0"
     inkscape:pageshadow="2"
     inkscape:pageopacity="0.0"
     inkscape:pagecheckerboard="0"
     inkscape:document-units="mm"
     showgrid="false"
     inkscape:zoom="0.57994529"
     inkscape:cx="393.14053"
     inkscape:cy="419.00504"
     inkscape:window-width="1600"
     inkscape:window-height="837"
     inkscape:window-x="-8"
     inkscape:window-y="-8"
     inkscape:window-maximized="1"
     inkscape:current-layer="layer1" />
  <defs
     id="defs980" />
  <g
     inkscape:label="Ebene 1"
     inkscape:groupmode="layer"
     id="layer1"
     transform="translate(-0.86742122,-0.68568501)">
    <g
       id="g10"
       transform="matrix(2.8776063,0,0,2.8776063,-42.08253,-61.079061)">
      <path
         d="M 38.8,87.4 C 29.3,82.3 24.2,72.2 25,62.2 c 0,-0.2 0,-0.3 0,-0.5 0,0 0,-0.1 0,-0.1 1.3,-12.9 12,-23 25.1,-23.6 v 4.9 c 0,0.5 0.3,0.9 0.8,1.1 0.1,0 0.2,0.1 0.4,0.1 0.3,0 0.7,-0.2 0.9,-0.4 l 8,-10.3 c 0.3,-0.4 0.3,-1 0,-1.4 l -8,-10.1 c -0.3,-0.4 -0.8,-0.5 -1.3,-0.4 -0.5,0.2 -0.8,0.6 -0.8,1.1 V 28 c -1.7,0.1 -3.4,0.2 -5.1,0.5 -11.2,2 -20.5,8.9 -25.6,18.4 0,0 0,0 -0.1,0.1 -1,1.8 -1.8,3.8 -2.5,5.8 -5.6,16.8 1.7,35 17.2,43.4 0.2,0.1 0.4,0.1 0.5,0.1 0.4,0 0.8,-0.2 1,-0.6 C 35.8,95.2 35.6,94.5 35,94.2 23.7,88.1 17.1,76.5 17.1,64.4 c 0,0 0,0 0,-0.1 0,-16.6 11.9,-30.7 28.2,-33.6 1.9,-0.3 3.9,-0.5 5.9,-0.5 0,0 0,0 0,0 0.6,0 1.1,-0.5 1.1,-1.1 v -3.3 l 5.4,6.8 -5.4,7 v -2.7 c 0,-0.6 -0.5,-1.1 -1.1,-1.1 -10.7,0 -20.1,5.9 -25,14.7 -0.1,0.1 -0.1,0.1 -0.2,0.2 -1.8,3.4 -2.9,7 -3.3,10.6 0,0.1 0,0.1 0,0.2 0,0.2 0,0.4 0,0.5 -0.1,0.8 -0.1,1.6 -0.1,2.4 0,0 0,0.1 0,0.1 0.1,10.1 5.5,19.9 15,25 0.2,0.1 0.4,0.1 0.5,0.1 0.4,0 0.8,-0.2 1,-0.6 0.4,-0.6 0.2,-1.3 -0.3,-1.6 z"
         id="path2" />
      <path
         d="M 64.3,78.4 V 63.7 h 4.1 c 1.1,0 2,-0.9 2,-2 v -9.6 c 0,-1.1 -0.9,-2 -2,-2 H 55.9 c -0.1,0 -0.2,0 -0.2,0 -0.1,0 -0.2,0 -0.2,0 -1.1,0 -2,0.9 -2,2 0,1.1 -0.9,2 -2,2 -1.1,0 -2,-0.9 -2,-2 0,-1.1 -0.9,-2 -2,-2 -0.1,0 -0.2,0 -0.2,0 -0.1,0 -0.2,0 -0.2,0 H 34.6 c -1.1,0 -2,0.9 -2,2 v 9.6 c 0,1.1 0.9,2 2,2 h 4.1 v 14.7 c 0,1.1 0.9,2 2,2 h 21.7 c 1,0 1.9,-0.9 1.9,-2 z m -4,-16.7 V 76.4 H 42.6 V 61.7 c 0,-1.1 -0.9,-2 -2,-2 h -4.1 v -5.6 h 9.3 c 0.8,2.3 3,4 5.6,4 2.6,0 4.8,-1.7 5.6,-4 h 9.3 v 5.6 h -4.1 c -1,0 -1.9,0.9 -1.9,2 z"
         id="path4" />
      <path
         d="m 68.6,32.1 c -0.5,-0.3 -1.2,-0.1 -1.5,0.5 -0.3,0.6 -0.1,1.1 0.5,1.4 11.3,6.1 17.9,17.7 17.9,29.8 0,0 0,0 0,0.1 0,16.6 -11.9,30.7 -28.2,33.6 -1.9,0.3 -3.9,0.5 -5.9,0.5 0,0 0,0 0,0 -0.6,0 -1.1,0.5 -1.1,1.1 v 3.3 l -5.4,-6.8 5.4,-7 v 2.7 c 0,0.6 0.5,1.1 1.1,1.1 10.7,0 20.1,-5.9 25,-14.7 0.1,-0.1 0.2,-0.2 0.2,-0.3 1.8,-3.4 2.9,-7 3.3,-10.6 0,-0.1 0,-0.1 0,-0.2 0,-0.2 0,-0.3 0,-0.5 0.1,-0.8 0.1,-1.6 0.1,-2.4 0,0 0,-0.1 0,-0.1 -0.1,-10.1 -5.5,-19.9 -15,-25 -0.5,-0.3 -1.2,-0.1 -1.5,0.5 -0.3,0.5 -0.1,1.2 0.5,1.5 9.5,5.1 14.5,15.2 13.8,25.3 0,0.2 0,0.3 0,0.5 0,0 0,0.1 0,0.1 -1.3,12.9 -12,23 -25.1,23.6 v -4.9 c 0,-0.5 -0.3,-0.9 -0.8,-1.1 -0.5,-0.2 -1,0 -1.3,0.4 l -8,10.2 c -0.3,0.4 -0.3,1 0,1.4 l 8,10.1 c 0.2,0.3 0.5,0.4 0.9,0.4 0.1,0 0.2,0 0.4,-0.1 0.5,-0.2 0.8,-0.6 0.8,-1.1 v -5.5 c 1.7,-0.1 3.4,-0.2 5.1,-0.5 11.2,-2 20.5,-8.9 25.6,-18.3 0,0 0.1,-0.1 0.1,-0.1 1,-1.8 1.8,-3.8 2.5,-5.8 C 91.5,58.7 84.2,40.5 68.6,32.1 Z"
         id="path6" />
      <path
         d="M 57.1,61.1 H 53 c -0.6,0 -1.1,0.5 -1.1,1.1 v 4.1 c 0,0.6 0.5,1.1 1.1,1.1 h 4.1 c 0.6,0 1.1,-0.5 1.1,-1.1 v -4.1 c 0,-0.6 -0.5,-1.1 -1.1,-1.1 z M 56,65.2 H 54.2 V 63.4 H 56 Z"
         id="path8" />
    </g>
  </g>
</svg>
